<svg xmlns="http://www.w3.org/2000/svg" version="1.1" xmlns:xlink="http://www.w3.org/1999/xlink" xmlns:svgjs="http://svgjs.dev/svgjs" width="1500" height="1500" viewBox="0 0 1500 1500"><rect width="1500" height="1500" fill="#3346af"></rect><g transform="matrix(0.6666666666666666,0,0,0.6666666666666666,249.39393939393938,605.0902145745403)"><svg viewBox="0 0 396 115" data-background-color="#3346af" preserveAspectRatio="xMidYMid meet" height="435" width="1500" xmlns="http://www.w3.org/2000/svg" xmlns:xlink="http://www.w3.org/1999/xlink"><g id="tight-bounds" transform="matrix(1,0,0,1,0.2400000000000091,-0.035774745076309955)"><svg viewBox="0 0 395.52 115.07154949015263" height="115.07154949015263" width="395.52"><g><svg viewBox="0 0 572.9046163013381 166.67936364243613" height="115.07154949015263" width="395.52"><g transform="matrix(1,0,0,1,177.38461630133816,60.66636335830351)"><svg viewBox="0 0 395.52 45.34663692582912" height="45.34663692582912" width="395.52"><g id="textblocktransform"><svg viewBox="0 0 395.52 45.34663692582912" height="45.34663692582912" width="395.52" id="textblock"><g><svg viewBox="0 0 395.52 45.34663692582912" height="45.34663692582912" width="395.52"><g transform="matrix(1,0,0,1,0,0)"><svg width="395.52" viewBox="2.35 -35.5 313.977265625 36" height="45.34663692582912" data-palette-color="#c6e2fb"><g transform="matrix(1,0,0,1,0,0)"><g><svg width="16.164843749999996" viewBox="1.78 -36.36 74.21 36.36" height="7.92" data-palette-color="#c6e2fb" id="scriptelement" x="300.162421875" y="-7.92"><path d="M12.91-30.02L1.78-30.02 1.78-36.36 31.64-36.36 31.64-30.02 20.51-30.02 20.51 0 12.91 0 12.91-30.02ZM36.57 0L36.57-36.36 46.06-36.36 56.07-11.93 56.5-11.93 66.51-36.36 75.99-36.36 75.99 0 68.53 0 68.53-23.67 68.23-23.67 58.82-0.18 53.74-0.18 44.33-23.76 44.03-23.76 44.03 0 36.57 0Z" opacity="1" transform="matrix(1,0,0,1,0,0)" fill="#c6e2fb" class="undefined-123" data-fill-palette-color="primary" id="yy-123"></path></svg></g></g><g class="wordmark-text-0" data-fill-palette-color="primary" id="text-0"><path d="M17.95 0.5L17.95 0.5Q13.2 0.5 9.78-1.07 6.35-2.65 4.48-5.68 2.6-8.7 2.4-13.05L2.4-13.05Q2.35-15.2 2.35-17.63 2.35-20.05 2.4-22.25L2.4-22.25Q2.6-26.5 4.5-29.45 6.4-32.4 9.85-33.95 13.3-35.5 17.95-35.5L17.95-35.5Q21.7-35.5 24.6-34.58 27.5-33.65 29.48-32.1 31.45-30.55 32.5-28.7 33.55-26.85 33.6-25.05L33.6-25.05Q33.6-24.6 33.27-24.3 32.95-24 32.5-24L32.5-24 25.2-24Q24.65-24 24.38-24.18 24.1-24.35 23.9-24.7L23.9-24.7Q23.55-25.45 22.88-26.28 22.2-27.1 21.03-27.7 19.85-28.3 17.95-28.3L17.95-28.3Q15.15-28.3 13.5-26.8 11.85-25.3 11.7-22L11.7-22Q11.55-17.7 11.7-13.3L11.7-13.3Q11.85-9.8 13.55-8.25 15.25-6.7 18.1-6.7L18.1-6.7Q19.95-6.7 21.43-7.35 22.9-8 23.75-9.38 24.6-10.75 24.6-12.9L24.6-12.9 24.6-13.85 19.9-13.85Q19.35-13.85 19-14.23 18.65-14.6 18.65-15.15L18.65-15.15 18.65-18.85Q18.65-19.4 19-19.78 19.35-20.15 19.9-20.15L19.9-20.15 32.5-20.15Q33.05-20.15 33.4-19.78 33.75-19.4 33.75-18.85L33.75-18.85 33.75-13.15Q33.75-8.85 31.8-5.8 29.85-2.75 26.28-1.13 22.7 0.5 17.95 0.5ZM47.2 0L40.75 0Q40.2 0 39.85-0.38 39.5-0.75 39.5-1.25L39.5-1.25 39.5-33.75Q39.5-34.3 39.85-34.65 40.2-35 40.75-35L40.75-35 54.35-35Q60.85-35 64.55-32.02 68.25-29.05 68.25-23.6L68.25-23.6Q68.25-20.05 66.55-17.6 64.85-15.15 62.05-13.9L62.05-13.9 68.9-1.6Q69.05-1.3 69.05-1.05L69.05-1.05Q69.05-0.65 68.72-0.33 68.4 0 68 0L68 0 61.35 0Q60.4 0 59.95-0.48 59.5-0.95 59.3-1.35L59.3-1.35 53.6-12.35 48.5-12.35 48.5-1.25Q48.5-0.75 48.12-0.38 47.75 0 47.2 0L47.2 0ZM48.5-28.05L48.5-19.45 54.25-19.45Q56.6-19.45 57.77-20.6 58.95-21.75 58.95-23.7L58.95-23.7Q58.95-25.65 57.82-26.85 56.7-28.05 54.25-28.05L54.25-28.05 48.5-28.05ZM78.2 0L72.05 0Q71.65 0 71.32-0.33 71-0.65 71-1.05L71-1.05Q71-1.3 71.05-1.5L71.05-1.5 82.8-33.6Q82.95-34.15 83.42-34.58 83.9-35 84.75-35L84.75-35 92.15-35Q93-35 93.47-34.58 93.95-34.15 94.1-33.6L94.1-33.6 105.8-1.5Q105.9-1.3 105.9-1.05L105.9-1.05Q105.9-0.65 105.57-0.33 105.25 0 104.8 0L104.8 0 98.65 0Q97.9 0 97.52-0.38 97.15-0.75 97.05-1.05L97.05-1.05 95.1-6.15 81.75-6.15 79.85-1.05Q79.75-0.75 79.4-0.38 79.05 0 78.2 0L78.2 0ZM88.45-26.55L83.8-13.35 93.1-13.35 88.45-26.55ZM117.84 0L111.09 0Q110.54 0 110.19-0.38 109.84-0.75 109.84-1.25L109.84-1.25 109.84-33.75Q109.84-34.3 110.19-34.65 110.54-35 111.09-35L111.09-35 125.09-35Q129.24-35 132.32-33.73 135.39-32.45 137.12-29.9 138.84-27.35 138.84-23.45L138.84-23.45Q138.84-19.6 137.12-17.1 135.39-14.6 132.32-13.4 129.24-12.2 125.09-12.2L125.09-12.2 119.14-12.2 119.14-1.25Q119.14-0.75 118.77-0.38 118.39 0 117.84 0L117.84 0ZM118.99-28.05L118.99-19.1 124.84-19.1Q126.99-19.1 128.27-20.2 129.54-21.3 129.54-23.55L129.54-23.55Q129.54-25.45 128.44-26.75 127.34-28.05 124.84-28.05L124.84-28.05 118.99-28.05ZM151.34 0L144.89 0Q144.34 0 143.99-0.35 143.64-0.7 143.64-1.25L143.64-1.25 143.64-33.75Q143.64-34.3 143.99-34.65 144.34-35 144.89-35L144.89-35 151.34-35Q151.89-35 152.27-34.65 152.64-34.3 152.64-33.75L152.64-33.75 152.64-21.7 164.94-21.7 164.94-33.75Q164.94-34.3 165.29-34.65 165.64-35 166.19-35L166.19-35 172.64-35Q173.19-35 173.54-34.65 173.89-34.3 173.89-33.75L173.89-33.75 173.89-1.25Q173.89-0.75 173.54-0.38 173.19 0 172.64 0L172.64 0 166.19 0Q165.64 0 165.29-0.38 164.94-0.75 164.94-1.25L164.94-1.25 164.94-13.7 152.64-13.7 152.64-1.25Q152.64-0.75 152.27-0.38 151.89 0 151.34 0L151.34 0ZM205.14 0L182.14 0Q181.59 0 181.24-0.38 180.89-0.75 180.89-1.25L180.89-1.25 180.89-33.75Q180.89-34.3 181.24-34.65 181.59-35 182.14-35L182.14-35 188.74-35Q189.29-35 189.64-34.65 189.99-34.3 189.99-33.75L189.99-33.75 189.99-7.55 205.14-7.55Q205.69-7.55 206.04-7.18 206.39-6.8 206.39-6.25L206.39-6.25 206.39-1.25Q206.39-0.75 206.04-0.38 205.69 0 205.14 0L205.14 0ZM218.69 0L211.99 0Q211.44 0 211.09-0.38 210.74-0.75 210.74-1.25L210.74-1.25 210.74-33.75Q210.74-34.3 211.09-34.65 211.44-35 211.99-35L211.99-35 218.69-35Q219.24-35 219.61-34.65 219.99-34.3 219.99-33.75L219.99-33.75 219.99-1.25Q219.99-0.75 219.61-0.38 219.24 0 218.69 0L218.69 0ZM234.18 0L228.18 0Q227.63 0 227.28-0.38 226.93-0.75 226.93-1.25L226.93-1.25 226.93-33.75Q226.93-34.3 227.28-34.65 227.63-35 228.18-35L228.18-35 233.48-35Q234.33-35 234.71-34.63 235.08-34.25 235.18-34.05L235.18-34.05 247.38-14.85 247.38-33.75Q247.38-34.3 247.73-34.65 248.08-35 248.63-35L248.63-35 254.63-35Q255.18-35 255.53-34.65 255.88-34.3 255.88-33.75L255.88-33.75 255.88-1.3Q255.88-0.75 255.53-0.38 255.18 0 254.63 0L254.63 0 249.28 0Q248.48 0 248.11-0.4 247.73-0.8 247.63-0.95L247.63-0.95 235.43-19.45 235.43-1.25Q235.43-0.75 235.08-0.38 234.73 0 234.18 0L234.18 0ZM270.43 0L264.13 0Q263.58 0 263.23-0.38 262.88-0.75 262.88-1.25L262.88-1.25 262.88-33.75Q262.88-34.3 263.23-34.65 263.58-35 264.13-35L264.13-35 270.43-35Q270.98-35 271.33-34.65 271.68-34.3 271.68-33.75L271.68-33.75 271.68-22.65 280.93-34.05Q281.13-34.35 281.61-34.68 282.08-35 282.88-35L282.88-35 290.08-35Q290.53-35 290.83-34.68 291.13-34.35 291.13-33.95L291.13-33.95Q291.13-33.6 290.98-33.35L290.98-33.35 278.98-18.25 291.88-1.65Q292.08-1.45 292.08-1.05L292.08-1.05Q292.08-0.65 291.78-0.33 291.48 0 291.03 0L291.03 0 283.58 0Q282.68 0 282.21-0.4 281.73-0.8 281.58-1L281.58-1 271.68-13.35 271.68-1.25Q271.68-0.75 271.33-0.38 270.98 0 270.43 0L270.43 0Z" fill="#c6e2fb" data-fill-palette-color="primary"></path></g></svg></g></svg></g></svg></g></svg></g><g><svg viewBox="0 0 166.67936364243613 166.67936364243613" height="166.67936364243613" width="166.67936364243613"><g><svg></svg></g><g id="icon-0"><svg viewBox="0 0 166.67936364243613 166.67936364243613" height="166.67936364243613" width="166.67936364243613"><g><rect width="151.55475471932618" height="151.55475471932618" x="7.562304461554973" y="7.562304461554973" fill="#26326c" data-fill-palette-color="accent"></rect><rect width="151.55475471932618" height="151.55475471932618" x="15.124608923109946" y="8.881784197001252e-16" fill="#26326c" opacity="0.5" data-fill-palette-color="accent"></rect></g><g transform="matrix(1,0,0,1,21.606584175871347,23.011218788601376)"><svg viewBox="0 0 123.46619529069343 120.65692606523338" height="120.65692606523338" width="123.46619529069343"><g><svg xmlns="http://www.w3.org/2000/svg" xmlns:xlink="http://www.w3.org/1999/xlink" version="1.1" x="0" y="0" viewBox="4.000085497435469 5.013332686502011 91.05855408469914 88.98666717587562" enable-background="new 0 0 100 100" xml:space="preserve" height="120.65692606523338" width="123.46619529069343" class="icon-cg-0" data-fill-palette-color="quaternary" id="cg-0"><g fill="#ee3e38" data-fill-palette-color="quaternary"><circle cx="55.538" cy="19.677" r="4.9" fill="#ee3e38" data-fill-palette-color="quaternary"></circle></g><g fill="#ee3e38" data-fill-palette-color="quaternary"><circle cx="23.472" cy="42.596" r="4.9" fill="#ee3e38" data-fill-palette-color="quaternary"></circle></g><g fill="#ee3e38" data-fill-palette-color="quaternary"><circle cx="45.736" cy="65.145" r="4.9" fill="#ee3e38" data-fill-palette-color="quaternary"></circle></g><g fill="#ee3e38" data-fill-palette-color="quaternary"><circle cx="12.968" cy="82.662" r="4.9" fill="#ee3e38" data-fill-palette-color="quaternary"></circle></g><g fill="#ee3e38" data-fill-palette-color="quaternary"><circle cx="81.493" cy="25.552" r="4.9" fill="#ee3e38" data-fill-palette-color="quaternary"></circle></g><g fill="#ee3e38" data-fill-palette-color="quaternary"><circle cx="47.69" cy="89.1" r="4.9" fill="#ee3e38" data-fill-palette-color="quaternary"></circle></g><g fill="#ee3e38" data-fill-palette-color="quaternary"><path d="M12.968 83.811c-0.145 0-0.287-0.027-0.419-0.078-0.101-0.041-0.197-0.094-0.285-0.162-0.15-0.117-0.273-0.273-0.353-0.457-0.02-0.047-0.037-0.096-0.05-0.143L4.046 56.078c-0.136-0.471 0.039-0.975 0.438-1.258l51.203-36.386c0.455-0.323 1.075-0.273 1.473 0.117s0.457 1.01 0.143 1.47L16.579 79.428l28.615-15.297c0.166-0.088 0.353-0.135 0.542-0.135h46.606L80.492 26.358 58.655 7.024c-0.475-0.421-0.52-1.147-0.098-1.623 0.42-0.475 1.147-0.52 1.622-0.099l22.075 19.545c0.156 0.139 0.272 0.317 0.335 0.516l12.417 39.437c0.109 0.348 0.047 0.729-0.17 1.023-0.217 0.297-0.561 0.471-0.927 0.471H46.024L13.532 83.664c-0.051 0.027-0.104 0.053-0.159 0.074-0.069 0.025-0.141 0.045-0.212 0.057C13.097 83.807 13.032 83.811 12.968 83.811zM6.482 56.221l6.912 23.785 38.356-55.953L6.482 56.221z" fill="#ee3e38" data-fill-palette-color="quaternary"></path></g><g fill="#ee3e38" data-fill-palette-color="quaternary"><path d="M45.737 66.295c-0.077 0-0.155-0.008-0.233-0.023l0 0c-0.001 0-0.002 0-0.002 0-0.017-0.004-0.032-0.008-0.047-0.012l0 0c-0.003 0-0.004 0-0.006-0.002l0 0c-0.213-0.055-0.396-0.164-0.539-0.312L10.716 31.75 6.281 55.965c-0.114 0.625-0.714 1.037-1.338 0.924-0.625-0.115-1.038-0.715-0.924-1.338l4.829-26.37c0.076-0.42 0.381-0.763 0.788-0.891 0.408-0.127 0.854-0.018 1.155 0.285l34.292 34.292 9.896-42.656-28.495-7.184c-0.526-0.132-0.888-0.614-0.868-1.156s0.416-0.997 0.949-1.091l32.653-5.749c0.38-0.067 0.769 0.062 1.033 0.341 0.266 0.28 0.373 0.675 0.286 1.051l-2.81 12.109 24.046 6.062c0.391 0.099 0.702 0.396 0.819 0.782 0.116 0.386 0.022 0.806-0.249 1.105L46.603 65.9c-0.065 0.076-0.141 0.143-0.224 0.197 0 0.002-0.001 0.002-0.001 0.002-0.001 0-0.001 0-0.002 0l-0.001 0.002c-0.001 0-0.001 0-0.001 0-0.017 0.012-0.032 0.021-0.049 0.031-0.001 0-0.001 0-0.001 0-0.001 0-0.001 0-0.002 0.002h-0.001c-0.001 0-0.001 0-0.001 0C46.146 66.238 45.945 66.295 45.737 66.295zM57.209 20.773l-9.354 40.323 31.499-34.74L57.209 20.773zM32.262 12.112l23.237 5.858 2.406-10.373L32.262 12.112z" fill="#ee3e38" data-fill-palette-color="quaternary"></path></g><g fill="#ee3e38" data-fill-palette-color="quaternary"><path d="M47.69 90.25c-0.069 0-0.14-0.006-0.21-0.02l-34.722-6.439c-0.624-0.115-1.036-0.715-0.921-1.34 0.116-0.623 0.717-1.037 1.34-0.92l33.245 6.164-1.82-22.307-18.92-53.09c-0.214-0.598 0.099-1.256 0.697-1.469 0.598-0.213 1.255 0.099 1.469 0.697L46.819 64.76c0.033 0.094 0.055 0.191 0.062 0.293l1.955 23.953c0.028 0.357-0.11 0.707-0.376 0.947C48.248 90.145 47.973 90.25 47.69 90.25z" fill="#ee3e38" data-fill-palette-color="quaternary"></path></g><g fill="#ee3e38" data-fill-palette-color="quaternary"><path d="M47.689 90.25c-0.183 0-0.367-0.043-0.54-0.135-0.561-0.301-0.772-0.996-0.474-1.557l33.803-63.391c0.299-0.56 0.995-0.772 1.556-0.474 0.56 0.299 0.771 0.996 0.474 1.556L48.705 89.641C48.498 90.029 48.101 90.25 47.689 90.25z" fill="#ee3e38" data-fill-palette-color="quaternary"></path></g></svg></g></svg></g></svg></g></svg></g></svg></g><defs></defs></svg><rect width="395.52" height="115.07154949015263" fill="none" stroke="none" visibility="hidden"></rect></g></svg></g></svg>